<?xml version="1.0" standalone="no"?>
<!DOCTYPE svg PUBLIC "-//W3C//DTD SVG 20010904//EN"
 "http://www.w3.org/TR/2001/REC-SVG-20010904/DTD/svg10.dtd">
<svg version="1.0" xmlns="http://www.w3.org/2000/svg"
 width="1031.000000pt" height="1031.000000pt" viewBox="0 0 1031.000000 1031.000000"
 preserveAspectRatio="xMidYMid meet">
<metadata>
Created by potrace 1.14, written by Peter Selinger 2001-2017
</metadata>
<g transform="translate(0.000000,1031.000000) scale(0.100000,-0.100000)"
fill="#000000" stroke="none">
<path d="M4850 10149 c-173 -87 -1008 -503 -1855 -924 -1974 -983 -1805 -897
-1805 -918 0 -13 28 -31 102 -66 57 -27 144 -67 193 -91 50 -23 115 -53 145
-67 30 -14 102 -48 160 -75 58 -27 139 -65 181 -85 l77 -35 128 64 c168 84
2948 1480 3482 1749 l414 208 -54 24 c-29 14 -116 52 -193 86 -77 34 -158 71
-180 81 -132 61 -469 210 -474 209 -3 -1 -148 -72 -321 -160z"/>
<path d="M6310 9720 c-103 -53 -2957 -1474 -3522 -1753 -191 -95 -350 -178
-352 -184 -6 -15 3 -43 14 -43 4 0 59 -24 121 -54 229 -107 524 -245 647 -302
l72 -34 1058 531 c581 293 1482 745 2002 1006 520 261 949 479 955 484 5 6 5
9 -3 9 -7 0 -47 16 -89 36 -108 49 -119 54 -288 129 -82 37 -172 77 -200 89
-201 91 -303 136 -311 136 -5 -1 -52 -23 -104 -50z"/>
<path d="M7150 8909 c-294 -147 -1187 -592 -1985 -989 -797 -397 -1453 -727
-1457 -733 -17 -26 -7 -33 153 -106 41 -19 134 -63 207 -98 73 -35 135 -63
136 -63 2 0 71 -32 153 -70 81 -39 160 -76 175 -84 31 -14 -91 -73 1745 850
450 226 1153 579 1562 784 473 237 738 376 730 381 -8 4 -147 66 -309 139
-162 72 -317 142 -345 155 -83 38 -148 67 -190 84 l-40 17 -535 -267z"/>
<path d="M6706 7621 l-2069 -1037 -1 -3292 c-1 -1811 0 -3292 1 -3292 1 0 919
459 2040 1019 l2038 1019 197 294 c108 161 289 430 402 598 l206 305 0 815 0
815 -72 38 c-115 59 -530 277 -650 340 -62 33 -98 80 -98 127 0 34 21 72 156
277 86 131 192 292 235 358 44 66 84 127 89 135 6 8 84 128 175 265 l165 250
0 815 0 815 -192 99 c-106 54 -270 139 -365 187 -95 49 -176 88 -180 88 -4 -1
-939 -468 -2077 -1038z m1300 -895 c12 -4 14 -89 14 -503 l0 -498 -877 -440
c-854 -427 -880 -439 -935 -439 -32 0 -61 4 -65 8 -4 4 -8 231 -8 503 l0 496
350 177 c1397 706 1396 706 1454 704 29 -2 60 -5 67 -8z m-2 -2562 c14 -5 16
-59 16 -504 l0 -497 -877 -439 c-854 -427 -880 -439 -936 -439 -33 0 -62 4
-65 10 -8 12 -10 983 -2 993 7 10 -12 0 730 375 377 190 755 382 840 425 142
73 160 80 217 81 34 1 68 -2 77 -5z"/>
<path d="M6872 5998 c-410 -210 -527 -270 -531 -274 -3 -3 -5 -532 -2 -584 1
-19 1306 630 1306 649 0 6 -74 50 -165 97 -91 47 -220 114 -288 149 l-123 64
-197 -101z"/>
<path d="M7005 3506 c-33 -18 -195 -101 -360 -185 -165 -85 -302 -155 -304
-157 -3 -3 -5 -493 -2 -581 1 -20 65 9 656 305 360 180 655 332 655 339 0 6
-30 27 -67 46 -38 18 -169 86 -293 150 l-225 116 -60 -33z"/>
<path d="M955 8249 c5 -8 36 -57 70 -109 34 -52 108 -165 163 -250 55 -85 105
-160 111 -167 6 -7 11 -14 11 -17 0 -3 31 -51 68 -108 37 -57 91 -138 119
-181 l50 -78 1 -922 0 -922 -51 -28 c-29 -15 -126 -67 -217 -114 -91 -48 -210
-111 -265 -140 -55 -30 -126 -66 -157 -81 -32 -15 -58 -33 -58 -41 0 -8 35
-69 79 -135 43 -67 98 -152 123 -191 25 -38 112 -173 193 -300 81 -126 171
-266 200 -310 29 -44 75 -115 102 -158 l50 -79 1 -913 0 -914 -319 -177 c-175
-97 -326 -182 -336 -189 -18 -14 -54 5 542 -285 110 -53 277 -134 370 -180 94
-45 256 -124 360 -175 105 -51 282 -137 395 -192 113 -55 282 -138 375 -183
94 -45 262 -128 375 -183 204 -99 311 -151 765 -371 132 -64 248 -121 258
-127 10 -5 28 -14 40 -18 l22 -9 -1 3287 c-1 1807 -2 3289 -3 3294 0 4 -11 11
-23 16 -13 5 -142 67 -288 139 -146 71 -330 161 -410 200 -134 65 -227 110
-760 370 -107 52 -258 125 -335 162 -77 37 -239 116 -360 175 -121 59 -301
147 -400 195 -211 102 -524 255 -715 348 -74 37 -139 68 -144 71 -5 2 -5 -3
-1 -10z m705 -3601 c124 -64 324 -166 445 -228 121 -62 321 -164 445 -228 124
-63 302 -154 395 -202 94 -48 283 -145 420 -215 138 -70 255 -132 262 -139 6
-6 30 -47 54 -91 23 -44 68 -127 99 -185 31 -58 79 -145 105 -195 61 -116 121
-227 155 -290 112 -205 110 -196 25 -150 -22 12 -168 88 -325 167 -157 80
-361 185 -455 233 -93 48 -271 139 -395 203 -124 63 -288 147 -365 187 -77 40
-270 139 -430 220 -167 85 -300 158 -313 174 -19 22 -53 74 -120 185 -7 11
-25 40 -40 63 -15 24 -70 110 -122 193 -52 82 -111 174 -130 204 -100 157
-215 341 -218 349 -2 4 61 -25 140 -66 78 -41 244 -126 368 -189z"/>
</g>
</svg>
