<?xml version="1.0" standalone="no"?>
<!DOCTYPE svg PUBLIC "-//W3C//DTD SVG 20010904//EN"
 "http://www.w3.org/TR/2001/REC-SVG-20010904/DTD/svg10.dtd">
<svg version="1.0" xmlns="http://www.w3.org/2000/svg"
 width="205.000000pt" height="205.000000pt" viewBox="0 0 205.000000 205.000000"
 preserveAspectRatio="xMidYMid meet">
<metadata>
Created by potrace 1.14, written by Peter Selinger 2001-2017
</metadata>
<g transform="translate(0.000000,205.000000) scale(0.100000,-0.100000)"
fill="#000000" stroke="none">
<path d="M668 1806 c-202 -99 -366 -185 -365 -190 2 -5 37 -25 79 -44 l75 -33
374 187 374 187 -65 29 c-36 17 -74 33 -85 38 -15 6 -107 -35 -387 -174z"/>
<path d="M898 1707 c-202 -100 -366 -186 -365 -192 2 -5 37 -25 79 -43 l75
-34 374 188 374 187 -84 38 c-46 22 -84 39 -85 39 0 -1 -166 -83 -368 -183z"/>
<path d="M1128 1594 c-204 -102 -367 -188 -362 -193 5 -4 42 -22 83 -41 l75
-33 374 188 c206 104 369 191 361 194 -8 2 -47 19 -87 37 l-72 33 -372 -185z"/>
<path d="M1315 1488 l-380 -190 0 -609 c0 -335 2 -609 4 -609 3 0 174 84 379
187 l374 186 74 112 75 111 -3 153 -3 152 -69 38 c-39 21 -72 43 -73 48 -2 6
30 63 72 126 l75 114 0 155 0 154 -65 32 c-36 18 -69 32 -73 32 -4 -1 -178
-87 -387 -192z m246 -200 c2 -58 0 -150 -3 -152 -84 -45 -318 -156 -329 -156
-12 0 -15 16 -14 91 l0 91 155 79 c85 43 163 78 173 78 12 1 17 -7 18 -31z m0
-475 c2 -63 0 -145 -3 -148 -2 -2 -77 -40 -167 -85 -105 -52 -166 -78 -170
-71 -4 6 -7 48 -7 93 l1 83 160 82 c88 45 166 82 173 83 7 0 12 -15 13 -37z"/>
<path d="M1313 1173 l-63 -34 0 -55 c0 -29 3 -54 7 -54 11 0 233 114 233 120
0 5 -108 61 -113 59 -1 -1 -30 -17 -64 -36z"/>
<path d="M1313 697 l-63 -31 0 -58 0 -58 120 60 c67 33 118 65 115 70 -6 9
-92 51 -104 49 -3 0 -34 -14 -68 -32z"/>
<path d="M277 1567 c14 -23 39 -61 55 -85 l30 -43 1 -169 c0 -94 -1 -171 -4
-173 -2 -2 -34 -21 -71 -41 l-67 -37 70 -108 70 -109 1 -154 c0 -84 -1 -160
-1 -169 -1 -10 -24 -29 -53 -44 -29 -15 -57 -31 -61 -35 -5 -4 33 -28 85 -53
449 -218 551 -267 555 -263 3 3 6 1068 3 1193 0 18 -20 32 -107 74 -60 29
-171 83 -248 121 -77 38 -172 85 -212 103 l-72 33 26 -41z m469 -821 c6 -6 30
-46 53 -89 l42 -78 -214 108 -214 108 -54 84 c-30 47 -56 89 -57 93 -5 11 428
-209 444 -226z"/>
</g>
</svg>
